<?xml version="1.0" encoding="UTF-8" standalone="no"?>
<!-- Created with Inkscape (http://www.inkscape.org/) -->

<svg
   width="32.512779mm"
   height="20.934998mm"
   viewBox="0 0 32.512779 20.934998"
   version="1.1"
   id="svg36167"
   inkscape:version="1.1 (1:1.1+202105261517+ce6663b3b7)"
   sodipodi:docname="iok-cloud-logo.svg"
   inkscape:export-filename="/home/ioboard/dev/borokero-docs/images/iok-cloud-logo.png"
   inkscape:export-xdpi="799.55121"
   inkscape:export-ydpi="799.55121"
   xmlns:inkscape="http://www.inkscape.org/namespaces/inkscape"
   xmlns:sodipodi="http://sodipodi.sourceforge.net/DTD/sodipodi-0.dtd"
   xmlns="http://www.w3.org/2000/svg"
   xmlns:svg="http://www.w3.org/2000/svg">
  <sodipodi:namedview
     id="namedview36169"
     pagecolor="#ffffff"
     bordercolor="#cccccc"
     borderopacity="1"
     inkscape:pageshadow="0"
     inkscape:pageopacity="1"
     inkscape:pagecheckerboard="0"
     inkscape:document-units="mm"
     showgrid="false"
     inkscape:zoom="1.8957351"
     inkscape:cx="59.343734"
     inkscape:cy="53.013736"
     inkscape:window-width="1294"
     inkscape:window-height="704"
     inkscape:window-x="72"
     inkscape:window-y="27"
     inkscape:window-maximized="1"
     inkscape:current-layer="layer1"
     fit-margin-top="0"
     fit-margin-left="0"
     fit-margin-right="0"
     fit-margin-bottom="0" />
  <defs
     id="defs36164" />
  <g
     inkscape:label="Layer 1"
     inkscape:groupmode="layer"
     id="layer1"
     transform="translate(-41.24549,-134.29921)">
    <g
       id="g6"
       transform="matrix(0.26458333,0,0,0.26458333,41.245666,134.29964)">
      <path
         style="fill:#ff0000"
         d="m 44.2,71.76 c 2.03,0 3.68,1.65 3.68,3.68 0,2.03 -1.65,3.68 -3.68,3.68 H 23.38 L 22.92,79.08 C 20.25,78.74 17.83,78.11 15.63,77.2 13.38,76.27 11.37,75.06 9.59,73.57 H 9.58 C 7.9,72.17 6.43,70.58 5.18,68.85 1.84,64.25 0.04,58.63 0,53.03 -0.04,47.37 1.72,41.74 5.52,37.18 6.75,35.7 8.2,34.34 9.86,33.14 11.79,31.74 14,30.56 16.5,29.59 18.22,28.92 20.06,28.36 22,27.91 24.2,19.17 28.89,12.44 34.92,7.77 40.56,3.4 47.35,0.85 54.34,0.18 c 6.96,-0.67 14.12,0.51 20.55,3.6 7.37,3.54 13.43,9.56 17.11,16.87 1.6,-0.25 3.2,-0.38 4.79,-0.36 6.72,0.05 13.2,2.45 18.3,7.95 5.31,5.72 7.88,14.14 7.79,21.82 -0.07,6.31 -1.77,12.59 -5.25,17.22 -2.27,3.02 -5.18,5.47 -8.67,7.42 -3.36,1.88 -7.28,3.31 -11.68,4.33 -1.98,0.45 -3.95,-0.78 -4.4,-2.76 -0.45,-1.98 0.78,-3.95 2.76,-4.4 3.71,-0.86 6.97,-2.04 9.72,-3.58 2.63,-1.47 4.78,-3.26 6.39,-5.41 2.5,-3.33 3.73,-8.04 3.78,-12.87 0.06,-5.07 -1.18,-10.16 -3.59,-13.86 -0.69,-1.07 -1.44,-2.03 -2.25,-2.89 -3.61,-3.89 -8.19,-5.59 -12.95,-5.62 -3.46,-0.02 -7.02,0.81 -10.41,2.31 -0.75,0.37 -1.51,0.78 -2.25,1.21 -2.25,1.32 -4.48,2.93 -6.74,4.78 L 72.5,30.4 c 1.67,-1.55 3.48,-2.96 5.4,-4.21 1.53,-1 3.13,-1.88 4.77,-2.65 0.66,-0.33 1.33,-0.64 2,-0.93 C 81.48,16.96 76.89,12.91 71.69,10.41 66.49,7.92 60.67,6.96 55,7.51 49.37,8.05 43.9,10.1 39.38,13.61 34.15,17.67 30.18,23.72 28.65,31.75 l -0.48,2.51 -2.5,0.44 c -2.45,0.43 -4.64,1.02 -6.56,1.77 -1.86,0.72 -3.52,1.61 -4.97,2.66 -1.16,0.84 -2.16,1.78 -3.01,2.8 -2.63,3.15 -3.85,7.1 -3.82,11.1 0.03,4.06 1.35,8.16 3.79,11.53 0.91,1.25 1.96,2.4 3.16,3.4 l -0.01,0.01 c 1.2,1 2.58,1.83 4.13,2.47 1.53,0.63 3.22,1.08 5.09,1.34 H 44.2 Z"
         id="path817" />
      <text
         xml:space="preserve"
         style="font-size:58.6667px;line-height:1.25;font-family:sans-serif;word-spacing:0px;fill:#000000;stroke-width:1.076"
         x="39.339294"
         y="75.304306"
         id="text3154"
         transform="scale(0.97003832,1.0308871)"><tspan
           sodipodi:role="line"
           id="tspan3152"
           x="39.339294"
           y="75.304306"
           style="font-style:normal;font-variant:normal;font-weight:bold;font-stretch:normal;font-size:58.6667px;font-family:'Ubuntu Mono';-inkscape-font-specification:'Ubuntu Mono Bold';fill:#000000;stroke-width:1.076" /></text>
    </g>
    <text
       xml:space="preserve"
       style="font-size:15.1694px;line-height:1.25;font-family:sans-serif;word-spacing:0px;stroke-width:0.264583"
       x="51.431301"
       y="155.00642"
       id="text38648"><tspan
         sodipodi:role="line"
         id="tspan38646"
         style="font-style:normal;font-variant:normal;font-weight:bold;font-stretch:normal;font-size:15.1694px;font-family:'Ubuntu Mono';-inkscape-font-specification:'Ubuntu Mono Bold';stroke-width:0.264583"
         x="51.431301"
         y="155.00642">io</tspan></text>
  </g>
</svg>
